<?xml version="1.0" encoding="UTF-8"?>
<!DOCTYPE svg PUBLIC "-//W3C//DTD SVG 1.1//EN" "http://www.w3.org/Graphics/SVG/1.1/DTD/svg11.dtd">
<!-- Creator: CorelDRAW 2019 (64-Bit) -->
<svg xmlns="http://www.w3.org/2000/svg" xml:space="preserve" width="60.7315mm" height="37.369mm" version="1.1" style="shape-rendering:geometricPrecision; text-rendering:geometricPrecision; image-rendering:optimizeQuality; fill-rule:evenodd; clip-rule:evenodd"
viewBox="0 0 2066.02 1271.26"
 xmlns:xlink="http://www.w3.org/1999/xlink">
 <defs>
  <style type="text/css">
   <![CDATA[
    .str0 {stroke:#F6F6F6;stroke-width:68.04;stroke-miterlimit:2.61313}
    .fil0 {fill:none}
    .fil1 {fill:#FEFEFE;fill-rule:nonzero}
   ]]>
  </style>
 </defs>
 <g id="Layer_x0020_1">
  <metadata id="CorelCorpID_0Corel-Layer"/>
  <path class="fil0 str0" d="M361.43 34.02l1343.16 0c52.75,0 95.9,43.15 95.9,95.9l0 837.56c0,52.75 -43.15,95.9 -95.9,95.9l-1343.16 0c-52.75,0 -95.9,-43.15 -95.9,-95.9l0 -837.56c0,-52.75 43.15,-95.9 95.9,-95.9z"/>
  <path class="fil0 str0" d="M45.22 1214.83l1975.59 0c6.16,0 11.2,5.04 11.2,11.2l0 0c0,6.16 -5.04,11.2 -11.2,11.2l-1975.59 0c-6.16,0 -11.2,-5.04 -11.2,-11.2l0 -0c0,-6.16 5.03,-11.2 11.2,-11.2z"/>
  <path class="fil1" d="M912.48 780.43l141.74 0c10.83,0 20.22,3.82 28.19,11.46 7.96,7.65 11.94,16.88 11.94,27.71 0,10.83 -3.98,20.07 -11.94,27.71 -7.96,7.64 -17.36,11.47 -28.19,11.47l-146.68 0c-18.8,0 -38.06,-5.89 -57.97,-17.68 -19.91,-11.78 -33.76,-25 -41.57,-39.66l-90.14 -175.03c-12.1,-25.16 -18.16,-50.96 -18.16,-77.4 0,-29.31 5.73,-54.63 17.2,-76.13l91.1 -173.12c8.76,-16.24 22.3,-30.42 40.61,-42.68 18.47,-12.26 36.15,-18.47 53.35,-18.47l155.12 0c10.83,0 20.07,3.82 27.71,11.62 7.65,7.8 11.47,17.04 11.47,27.55 0,10.83 -3.82,20.23 -11.47,28.19 -7.64,7.96 -17.04,11.94 -27.87,11.94l-150.19 0c-12.42,-0.32 -22.61,6.85 -30.26,21.66l-86.16 162.77c-6.69,12.74 -10.19,27.87 -10.35,45.07 0.48,18.16 4.46,34.4 11.79,48.42l82.5 159.9c7.64,16.56 20.38,24.69 38.22,24.69zm121.12 -369.97l167.06 -144.29c22.46,-18.32 45.39,-27.55 69.12,-27.55 26.12,0 48.74,9.56 67.85,28.51 19.11,18.95 28.67,39.34 28.67,61l0 239.85c0,45.39 -19.43,84.57 -58.29,117.54l-52.24 44.11 19.59 50.81 52.24 0c10.67,0 19.91,3.82 27.4,11.46 7.48,7.65 11.31,16.88 11.31,27.71 0,10.83 -3.82,20.07 -11.31,27.71 -7.65,7.64 -16.88,11.47 -27.56,11.47l-106.7 0 -28.98 -74.85 -53.36 45.07c-23.41,19.91 -47.14,29.78 -71.19,29.78 -27.4,0 -50.33,-9.4 -68.8,-28.19 -18.47,-18.8 -27.71,-41.57 -27.71,-68.32l0 -218.83c0,-27.23 4.14,-50.8 12.58,-70.55 8.44,-19.75 25.16,-40.61 50.33,-62.43zm218.51 -86.96l-166.91 144.13c-14.49,12.74 -24.21,24.84 -28.99,36.47 -4.78,11.46 -7.16,27.71 -7.16,48.89l0 204.18c0,16.08 6.21,24.21 18.63,24.21 4.94,0.16 9.88,-1.75 14.49,-5.9l79.63 -68.32 -25.8 -67.84c-3.82,-8.92 -5.73,-16.72 -5.73,-23.25 0,-9.56 3.82,-18.16 11.62,-25.8 7.64,-7.64 16.88,-11.47 27.4,-11.47 18.16,-0.8 30.42,6.37 36.31,21.5l20.54 53.2c21.98,-18.48 37.74,-33.45 46.98,-45.07 9.24,-11.63 13.86,-25.32 13.86,-41.09l0 -229.82c0,-13.06 -6.05,-19.59 -18,-19.59 -6.53,-0.32 -12.26,1.59 -16.88,5.58z"/>
 </g>
</svg>
