<?xml version="1.0" encoding="UTF-8"?>
<!DOCTYPE svg PUBLIC "-//W3C//DTD SVG 1.1//EN" "http://www.w3.org/Graphics/SVG/1.1/DTD/svg11.dtd">
<!-- Creator: CorelDRAW 2019 (64-Bit) -->
<svg xmlns="http://www.w3.org/2000/svg" xml:space="preserve" width="132.404mm" height="81.0254mm" version="1.1" style="shape-rendering:geometricPrecision; text-rendering:geometricPrecision; image-rendering:optimizeQuality; fill-rule:evenodd; clip-rule:evenodd"
viewBox="0 0 13240.42 8102.53"
 xmlns:xlink="http://www.w3.org/1999/xlink">
 <defs>
  <style type="text/css">
   <![CDATA[
    .str1 {stroke:#3A4450;stroke-width:338.67;stroke-miterlimit:22.9256}
    .str0 {stroke:#3A4450;stroke-width:381;stroke-miterlimit:22.9256}
    .fil0 {fill:none}
    .fil1 {fill:#005FBF;fill-rule:nonzero}
   ]]>
  </style>
 </defs>
 <g id="Layer_x0020_1">
  <metadata id="CorelCorpID_0Corel-Layer"/>
  <path class="fil0 str0" d="M2283.56 190.5l8673.28 0c340.61,0 619.29,278.7 619.29,619.3l0 5408.42c0,340.61 -278.68,619.3 -619.29,619.3l-8673.28 0c-340.6,0 -619.29,-278.69 -619.29,-619.3l0 -5408.42c0,-340.6 278.69,-619.3 619.29,-619.3z"/>
  <path class="fil0 str1" d="M241.66 7815.49l12757.11 0c39.77,0 72.31,26.47 72.31,58.85l0 0c0,32.37 -32.54,58.85 -72.31,58.85l-12757.11 0c-39.77,0 -72.32,-26.48 -72.32,-58.85l0 0c0,-32.38 32.55,-58.85 72.32,-58.85z"/>
  <path class="fil1" d="M5841.92 5010.39l915.29 0c69.93,0 130.61,24.68 182.03,74.05 51.42,49.36 77.13,109.01 77.13,178.94 0,69.93 -25.71,129.58 -77.13,178.94 -51.42,49.37 -112.1,74.05 -182.03,74.05l-947.17 0c-121.35,0 -245.79,-38.05 -374.34,-114.15 -128.55,-76.11 -218.02,-161.47 -268.42,-256.08l-582.08 -1130.23c-78.16,-162.49 -117.24,-329.09 -117.24,-499.81 0,-189.23 37.02,-352.74 111.07,-491.58l588.25 -1117.89c56.57,-104.9 143.98,-196.42 262.25,-275.61 119.29,-79.19 233.45,-119.3 344.52,-119.3l1001.67 0c69.94,0 129.58,24.68 178.95,75.08 49.36,50.39 74.04,110.04 74.04,177.91 0,69.93 -24.68,130.61 -74.04,182.03 -49.37,51.42 -110.04,77.13 -179.97,77.13l-969.8 0c-80.22,-2.05 -146.03,44.22 -195.4,139.87l-556.37 1051.04c-43.19,82.27 -65.82,179.97 -66.85,291.04 3.09,117.24 28.8,222.14 76.1,312.64l532.72 1032.53c49.37,106.95 131.64,159.4 246.82,159.4z"/>
  <path id="1" class="fil1" d="M6624.03 2621.39l1078.81 -931.74c145.01,-118.27 293.1,-177.92 446.33,-177.92 168.66,0 314.7,61.71 438.11,184.09 123.41,122.38 185.11,254.02 185.11,393.88l0 1548.79c0,293.1 -125.46,546.09 -376.4,758.97l-337.32 284.88 126.5 328.06 337.32 0c68.9,0 128.55,24.68 176.88,74.05 48.34,49.36 73.02,109.01 73.02,178.94 0,69.93 -24.68,129.58 -73.02,178.94 -49.36,49.37 -109.01,74.05 -177.91,74.05l-689.04 0 -187.17 -483.36 -344.52 291.05c-151.18,128.55 -304.41,192.31 -459.7,192.31 -176.89,0 -324.98,-60.68 -444.28,-182.03 -119.29,-121.35 -178.94,-268.42 -178.94,-441.19l0 -1413.04c0,-175.86 26.74,-328.07 81.24,-455.59 54.51,-127.52 162.49,-262.25 324.98,-403.14zm1410.99 -561.51l-1077.78 930.71c-93.59,82.28 -156.32,160.44 -187.17,235.51 -30.85,74.05 -46.28,178.94 -46.28,315.72l0 1318.43c0,103.87 40.11,156.32 120.32,156.32 31.88,1.03 63.77,-11.31 93.59,-38.05l514.21 -441.19 -166.61 -438.11c-24.68,-57.59 -37.02,-107.98 -37.02,-150.14 0,-61.71 24.68,-117.24 75.08,-166.61 49.36,-49.36 109.01,-74.04 176.88,-74.04 117.24,-5.15 196.43,41.13 234.48,138.83l132.67 343.49c141.92,-119.29 243.73,-215.96 303.38,-291.04 59.65,-75.07 89.47,-163.52 89.47,-265.33l0 -1484c0,-84.33 -39.08,-126.5 -116.21,-126.5 -42.16,-2.05 -79.19,10.29 -109.01,36z"/>
 </g>
</svg>
