<?xml version="1.0" encoding="UTF-8"?>
<!DOCTYPE svg PUBLIC "-//W3C//DTD SVG 1.1//EN" "http://www.w3.org/Graphics/SVG/1.1/DTD/svg11.dtd">
<!-- Creator: CorelDRAW 2019 (64-Bit) -->
<svg xmlns="http://www.w3.org/2000/svg" xml:space="preserve" width="6.98907in" height="1.47122in" version="1.1" style="shape-rendering:geometricPrecision; text-rendering:geometricPrecision; image-rendering:optimizeQuality; fill-rule:evenodd; clip-rule:evenodd"
viewBox="0 0 6949.91 1462.98"
 xmlns:xlink="http://www.w3.org/1999/xlink"
 xmlns:xodm="http://www.corel.com/coreldraw/odm/2003">
 <defs>
  <style type="text/css">
   <![CDATA[
    .str0 {stroke:#3A4450;stroke-width:78.3;stroke-miterlimit:2.61313}
    .fil2 {fill:none}
    .fil3 {fill:#005FBF;fill-rule:nonzero}
    .fil0 {fill:#005FBF;fill-rule:nonzero}
    .fil1 {fill:#3A4450;fill-rule:nonzero}
   ]]>
  </style>
 </defs>
 <g id="Layer_x0020_1">
  <metadata id="CorelCorpID_0Corel-Layer"/>
  <g id="_2264398153056">
   <path class="fil0" d="M2963.27 703.2l155.03 0c11.85,0 22.12,4.18 30.83,12.54 8.71,8.36 13.06,18.47 13.06,30.31 0,11.85 -4.35,21.95 -13.06,30.31 -8.71,8.36 -18.99,12.54 -30.83,12.54l-160.43 0c-20.55,0 -41.63,-6.44 -63.41,-19.34 -21.77,-12.89 -36.93,-27.35 -45.46,-43.37l-98.6 -191.44c-13.24,-27.53 -19.86,-55.75 -19.86,-84.66 0,-32.05 6.27,-59.75 18.81,-83.27l99.64 -189.35c9.58,-17.77 24.39,-33.27 44.42,-46.69 20.21,-13.41 39.54,-20.21 58.36,-20.21l169.67 0c11.85,0 21.95,4.18 30.31,12.72 8.36,8.53 12.54,18.64 12.54,30.14 0,11.84 -4.18,22.12 -12.54,30.83 -8.36,8.71 -18.64,13.06 -30.48,13.06l-164.27 0c-13.59,-0.35 -24.74,7.49 -33.1,23.69l-94.24 178.03c-7.32,13.93 -11.15,30.48 -11.32,49.3 0.52,19.86 4.87,37.63 12.89,52.95l90.24 174.9c8.36,18.11 22.3,27 41.81,27z"/>
   <path id="1" class="fil0" d="M3427.5 298.54l182.73 -157.82c24.56,-20.03 49.65,-30.13 75.6,-30.13 28.57,0 53.31,10.45 74.21,31.18 20.9,20.73 31.35,43.03 31.35,66.72l0 262.34c0,49.65 -21.25,92.5 -63.75,128.56l-57.14 48.25 21.43 55.57 57.14 0c11.67,0 21.77,4.18 29.96,12.54 8.19,8.36 12.37,18.47 12.37,30.31 0,11.85 -4.18,21.95 -12.37,30.31 -8.36,8.36 -18.47,12.54 -30.14,12.54l-116.71 0 -31.71 -81.87 -58.35 49.3c-25.61,21.77 -51.56,32.58 -77.87,32.58 -29.96,0 -55.04,-10.28 -75.25,-30.83 -20.21,-20.55 -30.31,-45.46 -30.31,-74.73l0 -239.34c0,-29.79 4.53,-55.57 13.76,-77.17 9.23,-21.6 27.52,-44.42 55.05,-68.28zm239 -95.11l-182.56 157.65c-15.85,13.93 -26.48,27.17 -31.7,39.89 -5.23,12.54 -7.84,30.31 -7.84,53.48l0 223.32c0,17.59 6.79,26.48 20.38,26.48 5.4,0.18 10.8,-1.91 15.85,-6.44l87.1 -74.73 -28.22 -74.21c-4.18,-9.76 -6.27,-18.29 -6.27,-25.44 0,-10.45 4.18,-19.86 12.72,-28.22 8.36,-8.36 18.47,-12.54 29.97,-12.54 19.86,-0.87 33.27,6.97 39.71,23.52l22.47 58.18c24.04,-20.21 41.29,-36.58 51.39,-49.3 10.1,-12.72 15.16,-27.7 15.16,-44.94l0 -251.37c0,-14.28 -6.62,-21.43 -19.68,-21.43 -7.14,-0.35 -13.42,1.74 -18.47,6.1z"/>
   <path id="2" class="fil0" d="M4249.18 376.05l0 285.34 25.08 41.8 35.71 0 25.96 -42.85 0 -505.87c0,-11.85 4.35,-22.12 13.06,-30.83 8.71,-8.71 18.99,-13.06 30.83,-13.06 11.5,0 21.6,4.18 30.14,12.72 8.53,8.53 12.72,18.64 12.72,30.14l0 520.67c0,6.44 -3.48,15.5 -10.63,27l-39.89 65.85c-8.19,14.63 -20.55,21.95 -37.27,21.95l-80.66 0c-25.43,0 -41.81,-11.5 -48.95,-34.67 -7.84,23.17 -23.52,34.67 -46.86,34.67l-75.6 0c-21.77,0 -37.45,-8.01 -46.86,-24.04l-36.76 -61.67c-6.79,-11.32 -10.28,-20.9 -10.28,-29.09l0 -519.63c0,-11.85 4.36,-22.12 13.06,-30.83 8.54,-8.71 18.99,-13.06 30.83,-13.06 11.15,0 20.9,4.35 29.26,13.06 8.36,8.71 12.54,18.99 12.54,30.83l0 507.96 25.08 40.76 36.76 0 27 -42.85 0 -284.29c0,-11.84 4.18,-21.95 12.54,-30.31 8.36,-8.36 18.46,-12.54 30.31,-12.54 11.85,0 21.95,4.18 30.31,12.54 8.36,8.36 12.54,18.47 12.54,30.31z"/>
   <path id="3" class="fil0" d="M5011.11 197.33l-303.1 0 0 209.04 130.65 0c11.5,0 21.6,4.18 30.14,12.72 8.53,8.53 12.72,18.64 12.72,30.13 0,12.2 -4.18,22.65 -12.54,31.18 -8.36,8.53 -18.46,12.72 -30.31,12.72l-130.65 0 0 210.08 304.14 0c11.5,0 21.6,4.18 30.14,12.54 8.53,8.36 12.72,18.47 12.72,30.31 0,11.85 -4.35,21.95 -13.06,30.31 -8.71,8.36 -18.99,12.54 -30.83,12.54l-388.81 0 0 -678.32 388.81 0c11.85,0 22.12,4.35 30.83,13.06 8.71,8.71 13.06,18.99 13.06,30.83 0,11.49 -4.35,21.6 -13.06,30.13 -8.71,8.54 -18.99,12.72 -30.83,12.72z"/>
   <path id="4" class="fil0" d="M5254.64 746.05l0 -635.47 303.1 0c35.01,0 65.15,12.72 90.58,38.32 25.26,25.43 37.98,55.92 37.98,91.28l0 49.12c0,35.71 -12.54,66.19 -37.8,91.63 -25.09,25.26 -55.4,37.98 -90.76,37.98l-54.52 0 174.89 301.01c5.4,8.88 8.19,17.77 8.19,26.65 0,11.49 -4.35,21.43 -13.24,29.78 -8.88,8.36 -18.99,12.54 -30.31,12.54 -17.07,0 -29.96,-7.49 -38.84,-22.82l-201.2 -347.17 -61.32 0 0 327.14c0,11.85 -4.36,21.95 -13.07,30.31 -8.71,8.36 -18.98,12.54 -30.83,12.54 -11.85,0 -21.95,-4.18 -30.31,-12.54 -8.36,-8.36 -12.54,-18.46 -12.54,-30.31zm86.75 -412.84l216.52 0c11.85,0 21.95,-4.18 30.31,-12.54 8.19,-8.36 12.37,-18.46 12.37,-30.31l0 -50.17c0,-11.84 -4.18,-21.95 -12.37,-30.31 -8.36,-8.36 -18.46,-12.54 -30.31,-12.54l-216.52 0 0 135.88z"/>
   <path id="5" class="fil0" d="M5882.79 226.6l0 -116.02 433.75 0 0 116.19c0,11.85 -4.18,21.95 -12.72,30.31 -8.53,8.19 -18.64,12.37 -30.14,12.37 -11.84,0 -22.12,-4.18 -30.83,-12.54 -8.71,-8.54 -13.06,-18.47 -13.06,-29.79l0 -30.83 -86.75 0 0 549.59c0,12.02 -4.18,22.12 -12.72,30.48 -8.53,8.36 -18.64,12.54 -30.14,12.54 -12.2,0 -22.64,-4.18 -31.18,-12.54 -8.53,-8.36 -12.72,-18.46 -12.72,-30.48l0 -549.59 -87.79 0 0 30.14c0,12.02 -4.18,22.12 -12.54,30.49 -8.36,8.36 -18.46,12.54 -30.31,12.54 -11.85,0 -21.95,-4.18 -30.31,-12.54 -8.36,-8.36 -12.54,-18.47 -12.54,-30.31z"/>
   <path id="6" class="fil0" d="M6776.41 463.33l0 282.72c0,11.85 -4.18,21.95 -12.72,30.31 -8.54,8.36 -18.64,12.54 -30.14,12.54 -12.2,0 -22.64,-4.18 -31.18,-12.54 -8.53,-8.36 -12.72,-18.46 -12.72,-30.31l0 -282.37 -173.5 -218.27 0 -90.93c0,-12.2 4.18,-22.65 12.54,-31.18 8.36,-8.53 18.46,-12.72 30.31,-12.72 11.85,0 22.12,4.35 30.83,13.24 8.71,8.71 13.06,19.16 13.06,31.18l0 59.57 129.6 164.62 131.69 -166.18 0 -59.05c0,-11.67 4.18,-21.95 12.72,-30.49 8.53,-8.53 18.64,-12.89 30.13,-12.89 11.15,0 21.25,4 29.79,12.02 8.71,8.01 13.06,18.64 13.06,31.88l0 89.88 -173.5 218.97z"/>
   <polygon class="fil1" points="3018.35,1330.51 2967.24,1330.51 2967.24,1024.24 3018.35,1024.24 "/>
   <polygon id="1" class="fil1" points="3429.83,1330.51 3378.71,1330.51 3243.09,1109.89 3241.8,1110.32 3241.8,1330.51 3190.68,1330.51 3190.68,1024.24 3241.8,1024.24 3377.49,1244.94 3378.71,1244.5 3378.71,1024.24 3429.83,1024.24 "/>
   <polygon id="2" class="fil1" points="3772.59,1199.92 3649.1,1199.92 3649.1,1330.51 3597.99,1330.51 3597.99,1024.24 3794.05,1024.24 3794.05,1065.31 3649.1,1065.31 3649.1,1158.85 3772.59,1158.85 "/>
   <path id="3" class="fil1" d="M4180.9 1204.94c0,37.41 -11.78,68.49 -35.25,93.05 -23.48,24.63 -53.99,36.9 -91.61,36.97 -36.62,-0.07 -66.41,-12.35 -89.38,-36.97 -22.98,-24.55 -34.46,-55.64 -34.46,-93.05l0 -55.14c0,-37.26 11.42,-68.27 34.39,-92.97 22.9,-24.63 52.77,-36.97 89.46,-36.97 37.47,0 67.92,12.35 91.54,36.97 23.55,24.7 35.32,55.71 35.32,92.97l0 55.14zm-51.12 -55.49c0,-25.56 -6.82,-46.53 -20.39,-62.89 -13.64,-16.44 -32.09,-24.63 -55.35,-24.63 -22.54,0 -40.35,8.19 -53.27,24.63 -12.99,16.37 -19.46,37.33 -19.46,62.89l0 55.49c0,25.78 6.46,46.96 19.53,63.39 13.07,16.51 30.8,24.7 53.2,24.7 23.4,0 41.93,-8.18 55.42,-24.55 13.57,-16.44 20.32,-37.62 20.32,-63.54l0 -55.49z"/>
   <path id="4" class="fil1" d="M4389.98 1203.44l0 127.08 -51.11 0 0 -306.27 105.39 0c34.1,0 60.45,7.75 79.12,23.19 18.6,15.36 27.93,37.4 27.93,66.05 0,15.8 -4.1,29.44 -12.28,40.85 -8.19,11.49 -20.17,20.6 -35.9,27.49 17.3,5.46 29.72,14.36 37.33,26.71 7.68,12.35 11.49,27.64 11.49,45.8l0 25.49c0,8.97 1.15,17.73 3.37,26.28 2.22,8.54 5.96,15.08 11.13,19.6l0 4.81 -52.55 0c-5.6,-4.6 -9.19,-11.85 -10.77,-21.68 -1.51,-9.76 -2.3,-19.6 -2.3,-29.44l0 -24.63c0,-15.65 -4.52,-28.14 -13.57,-37.4 -9.05,-9.26 -21.32,-13.93 -36.9,-13.93l-60.38 0zm0 -40.99l51.55 0c20.46,0 35.4,-3.95 44.8,-11.78 9.4,-7.82 14.07,-19.81 14.07,-35.97 0,-15.44 -4.6,-27.5 -13.86,-36.26 -9.26,-8.76 -23.33,-13.14 -42.29,-13.14l-54.28 0 0 97.14z"/>
   <polygon id="5" class="fil1" points="4871.66,1259.87 4872.96,1259.87 4961.48,1024.24 5026.74,1024.24 5026.74,1330.51 4975.62,1330.51 4975.62,1110.46 4974.33,1110.32 4889.97,1330.51 4854.87,1330.51 4769.07,1106.08 4767.78,1106.51 4767.78,1330.51 4716.66,1330.51 4716.66,1024.24 4783.79,1024.24 "/>
   <path id="6" class="fil1" d="M5358.3 1259.01l-108.55 0 -23.55 71.51 -52.77 0 106.83 -306.27 48.6 0 105.54 306.27 -52.77 0 -23.33 -71.51zm-94.41 -42.72l80.55 0 -39.35 -120.69 -1.29 0 -39.92 120.69zm56.07 -277.84l57.87 0 0.36 1.22 -57.37 54.71 -41.06 0 40.2 -55.93z"/>
   <polygon id="7" class="fil1" points="5771.28,1065.31 5676.59,1065.31 5676.59,1330.51 5625.47,1330.51 5625.47,1065.31 5532.35,1065.31 5532.35,1024.24 5771.28,1024.24 "/>
   <polygon id="8" class="fil1" points="5969.23,1330.51 5918.12,1330.51 5918.12,1024.24 5969.23,1024.24 "/>
   <path id="9" class="fil1" d="M6365.34 1230.36l0.43 1.29c0.58,30.87 -9.47,55.78 -30.08,74.81 -20.6,18.95 -48.39,28.43 -83.49,28.5 -35.61,-0.07 -64.47,-12.06 -86.65,-36.11 -22.12,-24.05 -33.24,-54.78 -33.24,-92.26l0 -58.22c0,-37.33 10.99,-68.06 32.81,-92.26 21.9,-24.19 50.47,-36.26 85.65,-36.26 36.04,0 64.4,9.19 85.08,27.57 20.68,18.31 30.73,43.51 30.15,75.46l-0.43 1.29 -49.39 0c0,-20.46 -5.53,-36.12 -16.65,-47.03 -11.06,-10.84 -27.28,-16.3 -48.75,-16.3 -20.75,0 -37.19,8.26 -49.32,24.7 -12.13,16.51 -18.24,37.26 -18.24,62.39l0 58.65c0,25.42 6.17,46.31 18.52,62.82 12.35,16.44 29.15,24.7 50.47,24.7 20.89,0 36.76,-5.45 47.67,-16.37 10.84,-10.98 16.29,-26.71 16.29,-47.38l49.18 0z"/>
   <path id="10" class="fil1" d="M6678.24 1259.01l-108.55 0 -23.55 71.51 -52.77 0 106.83 -306.27 48.6 0 105.54 306.27 -52.77 0 -23.33 -71.51zm-94.41 -42.72l80.55 0 -39.35 -120.69 -1.29 0 -39.92 120.69z"/>
   <g>
    <rect class="fil2 str0" x="305.57" y="39.15" width="1766.46" height="1184.61" rx="101.52" ry="110.37"/>
    <rect class="fil2 str0" x="39.15" y="1398.05" width="2299.31" height="25.78" rx="50.3" ry="12.89"/>
    <path class="fil3" d="M1050.1 898.13l163.12 0c12.46,0 23.27,4.4 32.44,13.19 9.16,8.8 13.75,19.43 13.75,31.89 0,12.47 -4.58,23.09 -13.75,31.89 -9.16,8.8 -19.98,13.2 -32.44,13.2l-168.8 0c-21.63,0 -43.8,-6.78 -66.71,-20.35 -22.91,-13.56 -38.86,-28.77 -47.84,-45.64l-103.74 -201.42c-13.93,-28.96 -20.89,-58.65 -20.89,-89.07 0,-33.73 6.6,-62.87 19.79,-87.61l104.84 -199.23c10.08,-18.69 25.66,-35.01 46.74,-49.12 21.26,-14.11 41.6,-21.26 61.4,-21.26l178.51 0c12.47,0 23.09,4.4 31.89,13.38 8.8,8.98 13.2,19.61 13.2,31.71 0,12.47 -4.4,23.28 -13.2,32.44 -8.8,9.16 -19.61,13.75 -32.07,13.75l-172.84 0c-14.29,-0.37 -26.02,7.88 -34.82,24.93l-99.15 187.31c-7.7,14.66 -11.73,32.07 -11.91,51.87 0.55,20.89 5.13,39.59 13.57,55.72l94.94 184.01c8.8,19.06 23.46,28.41 43.99,28.41z"/>
    <path id="1" class="fil3" d="M1189.48 472.37l192.26 -166.05c25.84,-21.08 52.24,-31.71 79.54,-31.71 30.06,0 56.09,11 78.08,32.81 21.99,21.81 32.99,45.27 32.99,70.2l0 276.02c0,52.23 -22.36,97.32 -67.08,135.26l-60.12 50.77 22.55 58.47 60.11 0c12.28,0 22.91,4.4 31.53,13.19 8.61,8.8 13.01,19.43 13.01,31.89 0,12.47 -4.4,23.09 -13.01,31.89 -8.8,8.8 -19.43,13.2 -31.71,13.2l-122.8 0 -33.36 -86.14 -61.4 51.87c-26.94,22.91 -54.25,34.28 -81.92,34.28 -31.53,0 -57.92,-10.81 -79.18,-32.44 -21.26,-21.63 -31.89,-47.84 -31.89,-78.63l0 -251.83c0,-31.34 4.77,-58.47 14.48,-81.19 9.71,-22.73 28.96,-46.74 57.92,-71.85zm251.46 -100.07l-192.08 165.87c-16.68,14.66 -27.86,28.59 -33.36,41.97 -5.5,13.19 -8.24,31.89 -8.24,56.27l0 234.97c0,18.51 7.15,27.86 21.44,27.86 5.68,0.18 11.37,-2.02 16.68,-6.78l91.64 -78.63 -29.69 -78.08c-4.4,-10.27 -6.6,-19.25 -6.6,-26.76 0,-11 4.4,-20.89 13.38,-29.69 8.8,-8.8 19.43,-13.2 31.53,-13.2 20.89,-0.92 35,7.33 41.79,24.74l23.64 61.22c25.29,-21.26 43.44,-38.49 54.07,-51.87 10.63,-13.38 15.95,-29.14 15.95,-47.29l0 -264.47c0,-15.03 -6.96,-22.54 -20.71,-22.54 -7.51,-0.37 -14.11,1.83 -19.43,6.42z"/>
   </g>
  </g>
 </g>
</svg>
