<?xml version="1.0" encoding="UTF-8"?>
<!DOCTYPE svg PUBLIC "-//W3C//DTD SVG 1.1//EN" "http://www.w3.org/Graphics/SVG/1.1/DTD/svg11.dtd">
<!-- Creator: CorelDRAW 2019 (64-Bit) -->
<svg xmlns="http://www.w3.org/2000/svg" xml:space="preserve" width="1.98565in" height="2.46365in" version="1.1" style="shape-rendering:geometricPrecision; text-rendering:geometricPrecision; image-rendering:optimizeQuality; fill-rule:evenodd; clip-rule:evenodd"
viewBox="0 0 1297.88 1610.33"
 xmlns:xlink="http://www.w3.org/1999/xlink"
 xmlns:xodm="http://www.corel.com/coreldraw/odm/2003">
 <defs>
  <style type="text/css">
   <![CDATA[
    .fil9 {fill:#373435}
    .fil4 {fill:#FDCD9C}
    .fil11 {fill:#F59A9C}
    .fil7 {fill:#E3E2F1}
    .fil12 {fill:#DF6363}
    .fil0 {fill:#DBD8EC}
    .fil13 {fill:#CB4F50}
    .fil5 {fill:#D1CFE7}
    .fil6 {fill:#B8B8DC}
    .fil10 {fill:#9999CB}
    .fil1 {fill:#676AAF}
    .fil14 {fill:#323232}
    .fil2 {fill:#5659A5}
    .fil8 {fill:#2762AC}
    .fil3 {fill:#005FBF}
    .fil15 {fill:#E3E2F1;fill-rule:nonzero}
   ]]>
  </style>
 </defs>
 <g id="Capa_x0020_1">
  <metadata id="CorelCorpID_0Corel-Layer"/>
  <path class="fil0" d="M648.94 1610.33c357.42,0 648.94,-9.37 648.94,-20.85 0,-11.49 -291.52,-20.85 -648.94,-20.85 -357.43,0 -648.94,9.37 -648.94,20.85 0,11.48 291.52,20.85 648.94,20.85z"/>
  <polygon class="fil1" points="1032,770.88 1083.38,1589.47 1044.36,1589.47 942.59,770.88 "/>
  <polygon class="fil1" points="146.21,770.88 94.84,1589.47 133.83,1589.47 235.61,770.88 "/>
  <polygon class="fil2" points="146.21,770.88 141.78,841.27 226.86,841.27 235.61,770.88 "/>
  <polygon class="fil1" points="276.55,770.88 225.18,1589.47 264.19,1589.47 365.96,770.88 "/>
  <polygon class="fil2" points="276.55,770.88 272.13,841.27 357.21,841.27 365.96,770.88 "/>
  <path class="fil3" d="M395.58 100.09c1.61,-2.66 1.15,-6.08 0.73,-9.54l-12.86 -0.53c1.05,1.16 -1.69,0.7 2.15,1.18l10.14 -0.07 -0.16 8.96z"/>
  <path class="fil4" d="M511.87 58.28l201.34 0 0 161.07c0,55.37 -45.3,100.67 -100.67,100.67l-100.67 0 0 -261.75z"/>
  <polygon class="fil4" points="518.98,192.76 640.5,231.4 571.85,447.28 450.33,408.63 "/>
  <polygon class="fil5" points="827.5,575.46 991.74,575.46 1001.11,712.33 836.87,712.33 "/>
  <polygon class="fil6" points="992.62,588.17 996.73,648.46 832.49,648.46 828.37,588.17 "/>
  <polygon class="fil7" points="677.36,295.22 1227.45,295.22 1164.03,618.48 613.96,618.48 "/>
  <polygon class="fil8" points="690.23,310.84 632.95,602.84 1151.17,602.84 1208.46,310.84 "/>
  <path class="fil9" d="M764.58 1512.77l58.63 -5.32c2.48,0.11 4.62,1.83 6.26,5.1 1.65,3.26 2.38,7.15 2.13,11.5 -0.46,8.66 -3.05,16.43 -7.36,21.65 -15.26,18.56 -31.64,28.32 -50.7,30.35l-15.63 1.67c-24.72,2.64 -32.52,-58.33 -10.03,-62.11l16.7 -2.83z"/>
  <path class="fil9" d="M375.3 879.58l263.99 70.74c46.48,12.45 78.3,50.27 84.07,98.03l57.5 476.49c1.9,15.77 -38.45,30.16 -44.98,15.69l-69.68 -153.94c-42.04,-92.91 -56.92,-181.99 -48.31,-283.6l0.04 -0.46 -92.62 -36.31 -191.54 0 41.53 -186.65z"/>
  <path class="fil9" d="M999.55 1512.77l102.59 -5.32c4.36,0.11 8.08,1.83 10.95,5.1 2.91,3.26 4.17,7.15 3.75,11.5 -0.83,8.66 -5.36,16.43 -12.88,21.65 -26.72,18.56 -55.39,28.32 -88.73,30.35l-27.35 1.67c-43.25,2.64 -56.89,-58.33 -17.55,-62.11l29.22 -2.83z"/>
  <path class="fil9" d="M587.77 879.58l263.98 70.74c46.48,12.45 78.3,50.27 84.07,98.03l57.5 476.49c1.9,15.77 -38.45,30.16 -45,15.69l-69.66 -153.94c-42.04,-92.91 -56.93,-181.99 -48.31,-283.6l0.04 -0.46 -92.62 -36.31 -191.54 0 41.53 -186.65z"/>
  <path class="fil4" d="M381.84 450.95c23.08,-23.08 23.08,-60.52 0,-83.59 -23.08,-23.08 -60.52,-23.08 -83.6,0l-227.52 227.53c-23.09,23.09 -23.09,60.52 0,83.6 11.54,11.54 26.67,17.3 41.79,17.3l236.58 0.02c32.64,0 59.12,-26.47 59.12,-59.12 0,-32.67 -26.48,-59.12 -59.12,-59.12l-93.88 0 126.63 -126.63z"/>
  <path class="fil4" d="M608.48 450.95c-23.08,-23.08 -23.08,-60.52 0,-83.59 23.07,-23.08 60.5,-23.08 83.59,0l227.54 227.53c23.08,23.09 23.08,60.52 0,83.6 -11.54,11.54 -26.67,17.3 -41.79,17.3l-236.59 0.02c-32.65,0 -59.12,-26.47 -59.12,-59.12 0,-32.67 26.47,-59.12 59.12,-59.12l93.87 0 -126.62 -126.63z"/>
  <path class="fil10" d="M105.03 687.46l1087.82 0c12.97,0 23.58,18.77 23.58,41.71l0 0c0,22.94 -10.61,41.71 -23.58,41.71l-1087.82 0c-12.97,0 -23.58,-18.76 -23.58,-41.71l0 0c0,-22.94 10.62,-41.71 23.58,-41.71z"/>
  <polygon class="fil2" points="1032,770.88 1036.43,841.27 951.35,841.27 942.59,770.88 "/>
  <path class="fil9" d="M303.06 375.91l17.1 -17.11c99.94,-99.92 263.43,-99.92 363.35,0l48.06 48.08 -90.91 246.42 -397.57 0 59.96 -277.39z"/>
  <path class="fil11" d="M415.69 328.41l0.01 0c151.26,0 275.04,123.77 275.04,275.04l0 282.16c0,151.29 -123.78,275.04 -275.04,275.04l-0.01 0c-151.27,0 -275.03,-123.75 -275.03,-275.04l0 -282.16c0,-151.27 123.76,-275.04 275.03,-275.04z"/>
  <path class="fil11" d="M253.43 1160.65l466.64 0c26.88,0 48.88,-21.98 48.88,-48.88l0 0c0,-26.89 -22,-48.88 -48.88,-48.88l-466.64 0c-26.88,0 -48.87,22 -48.87,48.88l0 0c0,26.9 21.98,48.88 48.87,48.88z"/>
  <path class="fil11" d="M325.13 914.29l466.64 0c26.87,0 48.87,-22 48.87,-48.88l0 0c0,-26.89 -22,-48.88 -48.87,-48.88l-466.64 0c-26.89,0 -48.88,22 -48.88,48.88l0 0c0,26.88 22,48.88 48.88,48.88z"/>
  <polygon class="fil12" points="253.43,1160.65 223.55,1589.47 246.24,1589.47 305.48,1160.65 "/>
  <polygon class="fil13" points="253.45,1160.65 250.87,1197.53 300.39,1197.53 305.48,1160.65 "/>
  <polygon class="fil12" points="657.63,1160.65 687.54,1589.47 664.84,1589.47 605.59,1160.65 "/>
  <polygon class="fil13" points="657.63,1160.65 660.21,1197.53 610.68,1197.53 605.59,1160.65 "/>
  <polygon class="fil12" points="326.85,1160.65 296.96,1589.47 319.66,1589.47 378.88,1160.65 "/>
  <polygon class="fil13" points="326.85,1160.65 324.27,1197.53 373.8,1197.53 378.88,1160.65 "/>
  <polygon class="fil12" points="731.04,1160.65 760.94,1589.47 738.24,1589.47 678.99,1160.65 "/>
  <polygon class="fil13" points="731.04,1160.65 733.62,1197.53 684.09,1197.53 678.99,1160.65 "/>
  <polygon class="fil1" points="1162.35,770.88 1213.73,1589.47 1174.72,1589.47 1072.94,770.88 "/>
  <polygon class="fil2" points="1162.35,770.88 1166.78,841.27 1081.69,841.27 1072.94,770.88 "/>
  <path class="fil14" d="M546.38 0l51.1 0c23.67,0 43.02,19.36 43.02,43.02l0 145.36c0,23.66 -19.36,43.02 -43.02,43.02l-51.1 0c-23.68,0 -43.03,-19.35 -43.03,-43.02l0 -145.36c0,-23.66 19.35,-43.02 43.03,-43.02z"/>
  <path class="fil14" d="M698.44 11.95c36.19,3.05 64.86,33.62 64.86,70.57l0 0c0,38.95 -31.87,70.82 -70.83,70.82l-133.87 0c-16.16,0 -29.39,-13.2 -29.39,-29.36l0 -82.92c0,-14.85 11.17,-27.2 25.52,-29.11l143.7 0z"/>
  <polygon class="fil14" points="625.97,259.57 696.79,259.57 696.79,113.61 625.97,113.61 "/>
  <path class="fil4" d="M650.17 290.24c16.16,0 29.36,-20.95 29.36,-46.65 0,-25.67 -13.21,-46.64 -29.36,-46.64 -16.18,0 -29.36,20.97 -29.36,46.64 0,25.7 13.18,46.65 29.36,46.65z"/>
  <path class="fil15" d="M875.17 489.98c9.95,0.02 19.87,0.04 29.76,0.06 2.26,0.01 4.05,0.83 5.37,2.46 1.31,1.62 1.71,3.59 1.22,5.9 -0.49,2.31 -1.74,4.28 -3.75,5.91 -2.01,1.63 -4.15,2.43 -6.42,2.43 -10.26,0 -20.55,0 -30.86,0 -3.96,0 -7.74,-1.26 -11.41,-3.79 -3.67,-2.53 -6,-5.36 -6.96,-8.5 -1.83,-6.26 -3.66,-12.52 -5.47,-18.78 -1.81,-6.25 -3.63,-12.52 -5.45,-18.79 -1.38,-5.4 -1.43,-10.93 -0.19,-16.57 1.38,-6.26 3.77,-11.64 7.19,-16.2 4.55,-6.09 9.1,-12.17 13.62,-18.26 4.52,-6.08 9.06,-12.12 13.58,-18.18 2.58,-3.4 6.07,-6.35 10.45,-8.89 4.44,-2.51 8.4,-3.78 11.99,-3.72 10.74,0.18 21.47,0.36 32.17,0.53 2.23,0.04 3.97,0.88 5.2,2.55 1.22,1.66 1.61,3.61 1.14,5.8 -0.49,2.28 -1.7,4.24 -3.64,5.89 -1.92,1.64 -4.06,2.44 -6.31,2.41 -10.38,-0.15 -20.78,-0.3 -31.21,-0.45 -2.57,-0.1 -5.03,1.38 -7.3,4.49 -4.26,5.69 -8.53,11.39 -12.77,17.09 -4.26,5.72 -8.55,11.44 -12.81,17.17 -1.99,2.69 -3.45,5.91 -4.27,9.57 -0.75,3.87 -0.66,7.34 0.22,10.35 1.65,5.71 3.31,11.42 4.97,17.12 1.66,5.7 3.34,11.42 5.01,17.11 0.85,3.55 3.15,5.29 6.91,5.3zm42.24 -78.35c6.85,-4.98 13.72,-9.96 20.54,-14.92 6.8,-4.94 13.62,-9.91 20.4,-14.85 5.43,-3.77 10.53,-5.62 15.37,-5.54 5.32,0.09 9.53,2.18 12.59,6.18 3.07,4.01 4.15,8.28 3.21,12.79 -1.75,8.34 -3.49,16.68 -5.24,25.03 -1.74,8.35 -3.5,16.74 -5.25,25.12 -1.99,9.53 -7.73,17.75 -17.17,24.65 -4.25,3.1 -8.5,6.19 -12.75,9.29 0.6,3.59 1.19,7.17 1.79,10.76 3.58,0.01 7.18,0.02 10.79,0.02 2.19,0.01 3.93,0.83 5.13,2.44 1.2,1.62 1.6,3.57 1.12,5.86 -0.48,2.29 -1.7,4.24 -3.58,5.86 -1.92,1.61 -3.99,2.41 -6.19,2.41 -7.35,0 -14.72,0 -22.09,0 -0.89,-5.29 -1.78,-10.58 -2.67,-15.89 -4.36,3.2 -8.74,6.38 -13.12,9.57 -5.78,4.22 -11.2,6.32 -16.21,6.32 -5.75,0 -10.13,-1.99 -13.14,-6 -3.02,-4.02 -3.91,-8.88 -2.68,-14.61 1.68,-7.78 3.35,-15.55 5.02,-23.3 1.67,-7.75 3.34,-15.49 5,-23.22 1.24,-5.77 3.18,-10.74 5.84,-14.9 2.66,-4.15 7.08,-8.52 13.29,-13.07zm48.97 -17.64c-6.78,4.94 -13.56,9.9 -20.36,14.86 -6.8,4.97 -13.62,9.96 -20.47,14.95 -3.58,2.67 -6.16,5.19 -7.67,7.64 -1.52,2.42 -2.74,5.85 -3.7,10.33 -1.54,7.2 -3.1,14.43 -4.64,21.63 -1.55,7.21 -3.1,14.45 -4.65,21.69 -0.73,3.41 0.2,5.16 2.8,5.16 1.01,0.04 2.13,-0.38 3.28,-1.25 6.57,-4.84 13.11,-9.65 19.67,-14.45 -0.76,-4.79 -1.54,-9.6 -2.3,-14.4 -0.39,-1.89 -0.43,-3.54 -0.13,-4.92 0.43,-2.03 1.6,-3.84 3.56,-5.44 1.93,-1.61 4,-2.39 6.19,-2.38 3.79,-0.14 6.01,1.39 6.55,4.59 0.61,3.76 1.24,7.52 1.87,11.25 5.36,-3.86 9.28,-7 11.7,-9.44 2.41,-2.44 3.98,-5.31 4.67,-8.63 1.7,-8.04 3.39,-16.1 5.08,-24.11 1.69,-8.02 3.38,-16.05 5.06,-24.05 0.57,-2.72 -0.38,-4.11 -2.82,-4.15 -1.33,-0.08 -2.58,0.3 -3.71,1.12z"/>
 </g>
</svg>
